<svg width="41" height="58" viewBox="0 0 41 58" fill="none" xmlns="http://www.w3.org/2000/svg">
<rect width="41" height="58" rx="5" fill="url(#paint0_linear_5026_151)"/>
<line x1="1.5" y1="-1.5" x2="29.418" y2="-1.5" transform="matrix(-1 0 0 1 36.9672 12)" stroke="url(#paint1_linear_5026_151)" stroke-width="3" stroke-linecap="round"/>
<line x1="1.5" y1="-1.5" x2="29.418" y2="-1.5" transform="matrix(-1 0 0 1 36.9672 18)" stroke="url(#paint2_linear_5026_151)" stroke-width="3" stroke-linecap="round"/>
<line x1="1.5" y1="-1.5" x2="29.418" y2="-1.5" transform="matrix(-1 0 0 1 36.9672 24)" stroke="url(#paint3_linear_5026_151)" stroke-width="3" stroke-linecap="round"/>
<line x1="1.5" y1="-1.5" x2="29.418" y2="-1.5" transform="matrix(-1 0 0 1 36.9672 30)" stroke="url(#paint4_linear_5026_151)" stroke-width="3" stroke-linecap="round"/>
<line x1="16.6475" y1="46.8333" x2="7.54916" y2="46.8333" stroke="url(#paint5_linear_5026_151)" stroke-width="3" stroke-linecap="round"/>
<g clip-path="url(#clip0_5026_151)">
<path fill-rule="evenodd" clip-rule="evenodd" d="M36.9346 44.5101C36.9054 44.6862 36.8779 44.8525 36.8777 45.0037C36.8774 45.1646 36.9045 45.3371 36.9331 45.5196L36.9333 45.5205C36.9907 45.8859 37.05 46.2637 36.9018 46.6206C36.7536 46.9775 36.444 47.2021 36.1446 47.4193L36.1442 47.4196C35.9945 47.5282 35.8531 47.6308 35.7392 47.7446C35.6322 47.8514 35.5339 47.9883 35.4298 48.1332L35.4297 48.1333C35.2216 48.4228 34.9859 48.751 34.613 48.905C34.442 48.9757 34.2654 49 34.0905 49C33.8843 49 33.6802 48.9662 33.4899 48.9346C33.3138 48.9054 33.1475 48.8779 32.9962 48.8777H32.9943C32.8338 48.8777 32.6617 48.9047 32.4796 48.9333L32.4794 48.9333L32.4793 48.9334C32.114 48.9907 31.7362 49.0501 31.3794 48.9019C31.0225 48.7537 30.7979 48.4441 30.5807 48.1447L30.5807 48.1447C30.472 47.9948 30.3693 47.8533 30.2554 47.7393C30.1486 47.6323 30.0117 47.5339 29.8668 47.4298L29.8666 47.4297L29.8666 47.4297C29.5771 47.2217 29.249 46.9859 29.095 46.6131C28.941 46.2403 29.0071 45.8416 29.0654 45.49C29.0946 45.3138 29.1221 45.1475 29.1223 44.9963C29.1226 44.8353 29.0954 44.6626 29.0667 44.4798L29.0667 44.4795C29.0093 44.1141 28.9499 43.7362 29.0981 43.3794C29.2464 43.0225 29.5559 42.7979 29.8553 42.5807L29.8555 42.5806C30.0053 42.4719 30.1468 42.3692 30.2607 42.2554C30.3677 42.1486 30.466 42.0117 30.5702 41.8668L30.5703 41.8666C30.7783 41.5771 31.0141 41.249 31.3869 41.095C31.7597 40.941 32.1583 41.0071 32.51 41.0654L32.51 41.0654L32.5102 41.0654C32.6863 41.0946 32.8526 41.1221 33.0037 41.1223H33.0056C33.1662 41.1223 33.3382 41.0953 33.5204 41.0667L33.5205 41.0667C33.8859 41.0092 34.2637 40.9499 34.6206 41.0981C34.9775 41.2463 35.202 41.5559 35.4192 41.8552L35.4193 41.8553L35.4194 41.8555C35.5281 42.0053 35.6308 42.1468 35.7446 42.2607C35.8514 42.3677 35.9882 42.466 36.1331 42.5701L36.1334 42.5703L36.1334 42.5703C36.4229 42.7783 36.751 43.0141 36.905 43.3869V43.3869C37.059 43.7597 36.9929 44.1584 36.9346 44.5101ZM30.1109 46.2207C30.2384 46.5221 30.4103 46.7986 30.6231 47.0454L30.9559 46.7127C30.5672 46.2494 30.3331 45.6521 30.3331 45C30.3331 43.5271 31.5271 42.3331 33 42.3331C33.652 42.3331 34.2493 42.5673 34.7127 42.9559L35.0454 42.6232C34.7986 42.4103 34.5221 42.2384 34.2207 42.1109C33.8338 41.9473 33.4231 41.8643 33 41.8643C32.5769 41.8643 32.1662 41.9473 31.7793 42.1109C31.4059 42.2689 31.0706 42.4949 30.7827 42.7827C30.4949 43.0706 30.2689 43.4059 30.1109 43.7793C29.9473 44.1662 29.8643 44.5769 29.8643 45C29.8643 45.4231 29.9473 45.8338 30.1109 46.2207ZM35.2173 47.2173C35.5051 46.9295 35.7311 46.5942 35.8891 46.2207C36.0527 45.8338 36.1357 45.4231 36.1357 45C36.1357 44.5769 36.0527 44.1662 35.889 43.7793C35.7616 43.4779 35.5897 43.2014 35.3768 42.9546L35.0441 43.2874C35.4327 43.7507 35.6669 44.348 35.6669 45C35.6669 46.4729 34.4729 47.6669 33 47.6669C32.3479 47.6669 31.7507 47.4328 31.2873 47.0442L30.9546 47.3769C31.2014 47.5898 31.4779 47.7616 31.7793 47.8891C32.1662 48.0527 32.5769 48.1357 33 48.1357C33.4231 48.1357 33.8338 48.0527 34.2207 47.8891C34.5941 47.7312 34.9294 47.5051 35.2173 47.2173Z" fill="url(#paint6_linear_5026_151)"/>
</g>
<defs>
<linearGradient id="paint0_linear_5026_151" x1="8.84314" y1="0" x2="41" y2="0" gradientUnits="userSpaceOnUse">
<stop stop-color="#E1D8FF"/>
<stop offset="1" stop-color="#F4ECFF"/>
</linearGradient>
<linearGradient id="paint1_linear_5026_151" x1="2.68852" y1="0" x2="27.2213" y2="0" gradientUnits="userSpaceOnUse">
<stop stop-color="#BBA6FF"/>
<stop offset="1" stop-color="#CDBBEF"/>
</linearGradient>
<linearGradient id="paint2_linear_5026_151" x1="2.68852" y1="0" x2="27.2213" y2="0" gradientUnits="userSpaceOnUse">
<stop stop-color="#BBA6FF"/>
<stop offset="1" stop-color="#CDBBEF"/>
</linearGradient>
<linearGradient id="paint3_linear_5026_151" x1="2.68852" y1="0" x2="27.2213" y2="0" gradientUnits="userSpaceOnUse">
<stop stop-color="#BBA6FF"/>
<stop offset="1" stop-color="#CDBBEF"/>
</linearGradient>
<linearGradient id="paint4_linear_5026_151" x1="2.68852" y1="0" x2="27.2213" y2="0" gradientUnits="userSpaceOnUse">
<stop stop-color="#BBA6FF"/>
<stop offset="1" stop-color="#CDBBEF"/>
</linearGradient>
<linearGradient id="paint5_linear_5026_151" x1="17.0955" y1="45.3333" x2="7.4957" y2="45.3333" gradientUnits="userSpaceOnUse">
<stop stop-color="#BBA6FF"/>
<stop offset="1" stop-color="#CDBBEF"/>
</linearGradient>
<linearGradient id="paint6_linear_5026_151" x1="33" y1="41" x2="33" y2="49" gradientUnits="userSpaceOnUse">
<stop stop-color="#4614E8"/>
<stop offset="1" stop-color="#BCA7FF"/>
</linearGradient>
<clipPath id="clip0_5026_151">
<rect width="8" height="8" fill="white" transform="translate(29 41)"/>
</clipPath>
</defs>
</svg>
